<svg width="40" height="40" viewBox="0 0 40 40" fill="none" xmlns="http://www.w3.org/2000/svg">
<path fill-rule="evenodd" clip-rule="evenodd" d="M4 2H36C37.1046 2 38 2.89543 38 4V36C38 37.1046 37.1046 38 36 38H4C2.89543 38 2 37.1046 2 36V4C2 2.89543 2.89543 2 4 2ZM0 4C0 1.79086 1.79086 0 4 0H36C38.2091 0 40 1.79086 40 4V36C40 38.2091 38.2091 40 36 40H4C1.79086 40 0 38.2091 0 36V4ZM20 21.1876L11.544 14H28.456L20 21.1876ZM10 24.2544V15.3124L15.2379 19.7647L10 24.2544ZM23.219 21.0763L28.9634 26H11.0366L16.781 21.0763L18.7047 22.7114C19.4516 23.3463 20.5484 23.3463 21.2953 22.7114L23.219 21.0763ZM30 15.3124L24.7621 19.7647L30 24.2544V15.3124ZM10 12C8.89543 12 8 12.8954 8 14V26C8 27.1046 8.89543 28 10 28H30C31.1046 28 32 27.1046 32 26V14C32 12.8954 31.1046 12 30 12H10Z" fill="#FAEBD7"/>
</svg>
