<svg width="40" height="40" viewBox="0 0 40 40" fill="none" xmlns="http://www.w3.org/2000/svg">
<path fill-rule="evenodd" clip-rule="evenodd" d="M4 2H36C37.1046 2 38 2.89543 38 4V36C38 37.1046 37.1046 38 36 38H4C2.89543 38 2 37.1046 2 36V4C2 2.89543 2.89543 2 4 2ZM0 4C0 1.79086 1.79086 0 4 0H36C38.2091 0 40 1.79086 40 4V36C40 38.2091 38.2091 40 36 40H4C1.79086 40 0 38.2091 0 36V4ZM11.824 10.416C11.408 10.768 11.2 11.232 11.2 11.808C11.2 12.384 11.408 12.856 11.824 13.224C12.24 13.592 12.736 13.776 13.312 13.776C13.904 13.776 14.4 13.592 14.8 13.224C15.216 12.856 15.424 12.384 15.424 11.808C15.424 11.232 15.216 10.768 14.8 10.416C14.4 10.048 13.904 9.864 13.312 9.864C12.736 9.864 12.24 10.048 11.824 10.416ZM15.064 27V15.96H11.56V27H15.064ZM24.8408 18.768C25.0968 19.12 25.2248 19.624 25.2248 20.28V27H28.9928V19.896C28.9928 18.568 28.6808 17.536 28.0568 16.8C27.4328 16.064 26.4328 15.696 25.0568 15.696C24.2408 15.696 23.5528 15.864 22.9928 16.2C22.4488 16.536 22.0168 17.008 21.6968 17.616V15.96H18.0488V27H21.6968V20.28C21.6968 19.848 21.7768 19.48 21.9368 19.176C22.0968 18.872 22.3208 18.64 22.6088 18.48C22.8968 18.32 23.2328 18.24 23.6168 18.24C24.1928 18.24 24.6008 18.416 24.8408 18.768Z" fill="#FAEBD7"/>
</svg>
